<svg id="Capa_1" enable-background="new 0 0 512 512" height="512" viewBox="0 0 512 512" width="512" xmlns="http://www.w3.org/2000/svg"><g><path d="m215.361 302c0 66.299-53.699 120-120 120h-90v-60h90c32.999 0 60-27.001 60-60l29.703-30z" fill="#d9e5ff"/><path d="m455.361 302h-450v-60c0-16.569 13.431-30 30-30h390c16.569 0 30 13.431 30 30z" fill="#3d4b66"/><path d="m425.361 212h-195v90h225v-60c0-16.569-13.431-30-30-30z" fill="#2e384d"/><path d="m455.361 242h-450v-242h450z" fill="#4d5e80"/><path d="m230.361 0h225v242h-225z" fill="#3d4b66"/><path d="m486.56 349.699-91.199-60.599v-107.1h-90v130.499l-46.5 69.6c-9.9 15-9.9 34.799 0 49.799l53.399 80.102h137.4l52.2-104.7c10.201-20.101 3.6-45-15.3-57.601z" fill="#ffd9b3"/><path d="m486.56 349.699-91.199-60.599v-107.1h-45v330h99.3l52.2-104.7c10.2-20.101 3.599-45-15.301-57.601z" fill="#fb9"/><path d="m110.361 152c-24.814 0-45-20.186-45-45s20.186-45 45-45 45 20.186 45 45-20.186 45-45 45z" fill="#79cc52"/><path d="m230.361 152c-24.814 0-45-20.186-45-45s20.186-45 45-45 45 20.186 45 45-20.186 45-45 45z" fill="#ffd866"/><path d="m350.361 152c-24.814 0-45-20.186-45-45s20.186-45 45-45 45 20.186 45 45-20.186 45-45 45z" fill="#f25a3c"/><path d="m275.361 107c0-24.814-20.186-45-45-45v90c24.814 0 45-20.186 45-45z" fill="#ffbe40"/></g></svg>