<?xml version="1.0" encoding="iso-8859-1"?>
<!-- Generator: Adobe Illustrator 19.0.0, SVG Export Plug-In . SVG Version: 6.00 Build 0)  -->
<svg version="1.1" id="Layer_1" xmlns="http://www.w3.org/2000/svg" xmlns:xlink="http://www.w3.org/1999/xlink" x="0px" y="0px"
	 viewBox="0 0 512 512" style="enable-background:new 0 0 512 512;" xml:space="preserve">
<g>
	<path style="fill:#545454;" d="M384.7,485.298l-47.471-82.219c-2.134-3.695-0.868-8.421,2.828-10.555
		c3.695-2.135,8.421-0.868,10.555,2.828l47.471,82.219c2.133,3.695,0.867,8.421-2.829,10.555
		C391.561,490.26,386.834,488.995,384.7,485.298z"/>
	<path style="fill:#545454;" d="M116.54,488.486c-3.696-2.133-4.962-6.859-2.828-10.555l47.678-82.581
		c2.133-3.696,6.859-4.963,10.555-2.828c3.695,2.133,4.962,6.859,2.828,10.555l-47.678,82.581
		C124.962,489.352,120.239,490.621,116.54,488.486z"/>
</g>
<path style="fill:#BABABA;" d="M256.001,71.118c-97.099,0-175.813,78.715-175.813,175.816c0,97.099,78.714,175.812,175.813,175.812
	s175.814-78.713,175.814-175.812C431.815,149.833,353.1,71.118,256.001,71.118z M256.001,388.577
	c-78.228,0-141.645-63.414-141.645-141.643c0-78.23,63.416-141.647,141.645-141.647s141.645,63.417,141.645,141.647
	C397.646,325.162,334.23,388.577,256.001,388.577z"/>
<path style="fill:#989DA0;" d="M256.255,88.016c-87.766,0-158.915,71.149-158.915,158.918c0,87.766,71.149,158.914,158.915,158.914
	S415.171,334.7,415.171,246.934C415.171,159.165,344.022,88.016,256.255,88.016z M256.001,388.577
	c-78.228,0-141.645-63.414-141.645-141.643c0-78.23,63.416-141.647,141.645-141.647s141.645,63.417,141.645,141.647
	C397.646,325.162,334.23,388.577,256.001,388.577z"/>
<g>
	<path style="fill:#545454;" d="M256.001,396.304c-4.267,0-7.727-3.46-7.727-7.727v-86.792c0-4.267,3.46-7.727,7.727-7.727
		s7.727,3.46,7.727,7.727v86.792C263.728,392.844,260.268,396.304,256.001,396.304z"/>
	<path style="fill:#545454;" d="M256.001,199.164c-4.267,0-7.727-3.46-7.727-7.727v-86.15c0-4.267,3.46-7.727,7.727-7.727
		s7.727,3.459,7.727,7.727v86.15C263.728,195.705,260.268,199.164,256.001,199.164z"/>
	<path style="fill:#545454;" d="M326.829,377.329c-2.67,0-5.268-1.386-6.699-3.865l-44.204-76.566
		c-2.134-3.696-0.867-8.421,2.828-10.555s8.422-0.868,10.555,2.828l44.204,76.566c2.134,3.696,0.867,8.422-2.828,10.555
		C329.469,376.995,328.14,377.329,326.829,377.329z"/>
	<path style="fill:#545454;" d="M222.696,204.7l-44.21-76.572c-2.134-3.695-0.867-8.421,2.828-10.555
		c3.695-2.133,8.421-0.868,10.555,2.828l44.21,76.572c2.134,3.695,0.867,8.421-2.828,10.555
		C229.553,209.663,224.828,208.394,222.696,204.7z"/>
	<path style="fill:#545454;" d="M378.664,325.483c-1.311,0-2.64-0.334-3.856-1.037l-76.576-44.211
		c-3.695-2.133-4.962-6.859-2.828-10.555c2.134-3.696,6.86-4.963,10.555-2.828l76.576,44.211c3.695,2.133,4.962,6.859,2.828,10.555
		C383.932,324.096,381.334,325.483,378.664,325.483z"/>
	<path style="fill:#545454;" d="M207.027,226.39c-2.944,0,1.68,2.16-77.557-43.589c-3.695-2.134-4.962-6.86-2.828-10.555
		c2.133-3.696,6.86-4.963,10.555-2.828l73.701,42.552C217.73,215.915,214.886,226.39,207.027,226.39z"/>
	<path style="fill:#545454;" d="M397.647,254.659h-88.402c-4.268,0-7.727-3.46-7.727-7.727s3.459-7.727,7.727-7.727h88.402
		c4.268,0,7.727,3.46,7.727,7.727C405.374,251.199,401.915,254.659,397.647,254.659z"/>
	<path style="fill:#545454;" d="M202.77,254.659h-88.414c-4.267,0-7.727-3.46-7.727-7.727s3.46-7.727,7.727-7.727h88.414
		c4.267,0,7.727,3.46,7.727,7.727C210.497,251.199,207.037,254.659,202.77,254.659z"/>
	<path style="fill:#545454;" d="M295.38,224.198c-2.134-3.695-0.868-8.421,2.828-10.555l76.599-44.225
		c3.695-2.135,8.421-0.868,10.555,2.828c2.134,3.695,0.867,8.421-2.828,10.555l-76.599,44.225
		C302.236,229.161,297.513,227.893,295.38,224.198z"/>
	<path style="fill:#545454;" d="M133.34,325.483c-2.67,0-5.268-1.386-6.698-3.865c-2.134-3.696-0.867-8.422,2.828-10.555
		l75.345-43.499c3.695-2.133,8.421-0.868,10.555,2.828c2.134,3.696,0.867,8.422-2.828,10.555l-75.345,43.499
		C135.98,325.149,134.651,325.483,133.34,325.483z"/>
	<path style="fill:#545454;" d="M280.26,204.914c-3.696-2.134-4.962-6.86-2.828-10.555l42.701-73.958
		c2.134-3.696,6.86-4.963,10.555-2.828c3.695,2.134,4.962,6.86,2.828,10.555l-42.701,73.958
		C288.68,205.785,283.951,207.047,280.26,204.914z"/>
	<path style="fill:#545454;" d="M185.171,377.329c-1.311,0-2.64-0.334-3.856-1.037c-3.695-2.134-4.962-6.86-2.828-10.555
		l43.712-75.71c2.134-3.696,6.861-4.963,10.555-2.828c3.696,2.134,4.962,6.86,2.828,10.555l-43.712,75.71
		C190.438,375.943,187.841,377.329,185.171,377.329z"/>
</g>
<path style="fill:#BABABA;" d="M401.884,477.832c-17.157,0-285.151,0-291.768,0c-9.436,0-17.085,7.646-17.085,17.083
	S100.679,512,110.116,512c17.156,0,285.151,0,291.768,0c9.436,0,17.085-7.647,17.085-17.085
	C418.969,485.478,411.321,477.832,401.884,477.832z"/>
<path style="fill:#989DA0;" d="M401.884,494.916H265.616c-5.707,0-149.923,0-155.5,0c-6.321,0-11.826-3.44-14.781-8.542
	C88.743,497.752,96.989,512,110.116,512c17.156,0,285.151,0,291.768,0c13.126,0,21.371-14.246,14.781-25.626
	C413.71,491.475,408.205,494.916,401.884,494.916z"/>
<path style="fill:#67A1F6;" d="M483.18,375.2c0,8.236-6.674,14.911-14.909,14.911h-41.302c-8.234,0-14.909-6.674-14.909-14.911
	v-41.3c0-8.235,6.676-14.909,14.909-14.909h41.302c8.235,0,14.909,6.674,14.909,14.909V375.2z"/>
<path style="fill:#FFD961;" d="M291.562,56.21c0,8.234-6.676,14.908-14.91,14.908h-41.3c-8.234,0-14.91-6.674-14.91-14.908v-41.3
	C220.44,6.674,227.117,0,235.351,0h41.3c8.234,0,14.91,6.674,14.91,14.909V56.21H291.562z"/>
<path style="fill:#FCAB3F;" d="M99.94,375.2c0,8.236-6.676,14.911-14.909,14.911H43.729c-8.235,0-14.909-6.674-14.909-14.911v-41.3
	c0-8.235,6.675-14.909,14.909-14.909H85.03c8.234,0,14.909,6.674,14.909,14.909v41.3H99.94z"/>
<path style="fill:#98ED9E;" d="M483.18,161.498c0,8.234-6.674,14.909-14.909,14.909h-41.302c-8.234,0-14.909-6.676-14.909-14.909
	v-41.3c0-8.235,6.676-14.91,14.909-14.91h41.302c8.235,0,14.909,6.675,14.909,14.91V161.498z"/>
<path style="fill:#F95753;" d="M99.94,161.498c0,8.234-6.676,14.909-14.909,14.909H43.729c-8.235,0-14.909-6.676-14.909-14.909
	v-41.3c0-8.235,6.675-14.91,14.909-14.91H85.03c8.234,0,14.909,6.675,14.909,14.91v41.3H99.94z"/>
<path style="fill:#4C86F5;" d="M447.622,375.2v-41.3c0-8.235,6.676-14.909,14.909-14.909h-35.562
	c-8.234,0-14.909,6.674-14.909,14.909v41.3c0,8.236,6.676,14.911,14.909,14.911h35.562
	C454.297,390.11,447.622,383.436,447.622,375.2z"/>
<path style="fill:#FFC524;" d="M256.002,56.21v-41.3c0-8.235,6.676-14.909,14.91-14.909H235.35c-8.234,0-14.91,6.674-14.91,14.909
	v41.3c0,8.234,6.676,14.908,14.91,14.908h35.562C262.678,71.118,256.002,64.444,256.002,56.21z"/>
<path style="fill:#F49C0F;" d="M64.381,375.2v-41.3c0-8.235,6.675-14.909,14.909-14.909H43.729c-8.235,0-14.909,6.674-14.909,14.909
	v41.3c0,8.236,6.675,14.911,14.909,14.911h35.562C71.056,390.11,64.381,383.436,64.381,375.2z"/>
<path style="fill:#79CFAF;" d="M447.622,161.498v-41.3c0-8.235,6.676-14.91,14.909-14.91h-35.562
	c-8.234,0-14.909,6.675-14.909,14.91v41.3c0,8.234,6.676,14.909,14.909,14.909h35.562
	C454.297,176.408,447.622,169.732,447.622,161.498z"/>
<path style="fill:#CC4A4A;" d="M64.381,161.498v-41.3c0-8.235,6.675-14.91,14.909-14.91H43.729c-8.235,0-14.909,6.675-14.909,14.91
	v41.3c0,8.234,6.675,14.909,14.909,14.909h35.562C71.056,176.408,64.381,169.732,64.381,161.498z"/>
<path style="fill:#BABABA;" d="M256,193.704c-29.398,0-53.23,23.831-53.23,53.23c0,29.398,23.831,53.23,53.23,53.23
	s53.23-23.831,53.23-53.23C309.23,217.536,285.398,193.704,256,193.704z M256,267.515c-11.367,0-20.582-9.215-20.582-20.581
	c0-11.367,9.215-20.582,20.582-20.582c11.366,0,20.581,9.215,20.581,20.582C276.581,258.3,267.366,267.515,256,267.515z"/>
<path style="fill:#989DA0;" d="M256.455,210.076c-20.356,0-36.858,16.502-36.858,36.858s16.502,36.859,36.858,36.859
	c20.357,0,36.858-16.502,36.858-36.859S276.811,210.076,256.455,210.076z M256,267.515c-11.367,0-20.582-9.215-20.582-20.581
	c0-11.367,9.215-20.582,20.582-20.582c11.366,0,20.581,9.215,20.581,20.582C276.581,258.3,267.366,267.515,256,267.515z"/>
<g>
</g>
<g>
</g>
<g>
</g>
<g>
</g>
<g>
</g>
<g>
</g>
<g>
</g>
<g>
</g>
<g>
</g>
<g>
</g>
<g>
</g>
<g>
</g>
<g>
</g>
<g>
</g>
<g>
</g>
</svg>
