<svg id="Capa_1" enable-background="new 0 0 512 512" height="512" viewBox="0 0 512 512" width="512" xmlns="http://www.w3.org/2000/svg" xmlns:xlink="http://www.w3.org/1999/xlink"><linearGradient id="SVGID_1_" gradientUnits="userSpaceOnUse" x1="256" x2="256" y1="391" y2="121"><stop offset="0" stop-color="#00b59c"/><stop offset="1" stop-color="#9cffac"/></linearGradient><linearGradient id="SVGID_2_" gradientUnits="userSpaceOnUse" x1="256" x2="256" y1="336.996" y2="175.697"><stop offset="0" stop-color="#c3ffe8"/><stop offset=".9973" stop-color="#f0fff4"/></linearGradient><g><g><g><path d="m497 211c8.291 0 15-6.709 15-15v-60c0-8.291-6.709-15-15-15h-482c-8.291 0-15 6.709-15 15v60c0 8.291 6.709 15 15 15 24.814 0 45 20.186 45 45s-20.186 45-45 45c-8.291 0-15 6.709-15 15v60c0 8.291 6.709 15 15 15h482c8.291 0 15-6.709 15-15v-60c0-8.291-6.709-15-15-15-24.814 0-45-20.186-45-45s20.186-45 45-45z" fill="url(#SVGID_1_)"/></g></g><g><g><path d="m339.643 235.8c-1.758-5.435-6.46-9.39-12.114-10.21l-40.122-5.845-17.959-36.357c-5.039-10.254-21.855-10.254-26.895 0l-17.959 36.357-40.122 5.845c-5.654.82-10.356 4.775-12.114 10.21-1.758 5.42-.293 11.382 3.794 15.366l29.048 28.315-6.855 39.961c-.967 5.625 1.348 11.309 5.962 14.663 4.644 3.384 10.767 3.838 15.806 1.143l35.887-18.867 35.889 18.867c5.042 2.656 11.158 2.233 15.806-1.143 4.614-3.354 6.929-9.038 5.962-14.663l-6.855-39.961 29.048-28.315c4.086-3.984 5.55-9.946 3.793-15.366z" fill="url(#SVGID_2_)"/></g></g></g></svg>