<svg id="Capa_1" enable-background="new 0 0 512 512" height="512" viewBox="0 0 512 512" width="512" xmlns="http://www.w3.org/2000/svg"><g><path d="m406.5 128v176c0 8.28-6.72 15-15 15h-272c-8.28 0-15-6.72-15-15v-176c0-8.28 6.72-15 15-15h272c8.28 0 15 6.72 15 15z" fill="#f4f4f6"/><path d="m406.5 128v176c0 8.28-6.72 15-15 15h-136v-206h136c8.28 0 15 6.72 15 15z" fill="#e4e4ff"/><path d="m342.5 320v48c0 8.28-6.72 15-15 15h-144c-8.28 0-15-6.72-15-15v-48c0-47.97 39.03-87 87-87s87 39.03 87 87z" fill="#ff5e90"/><path d="m342.5 320v48c0 8.28-6.72 15-15 15h-72v-150c47.97 0 87 39.03 87 87z" fill="#d01273"/><circle cx="255.5" cy="216" fill="#ffcbbc" r="47"/><path d="m302.5 216c0 25.92-21.08 47-47 47v-94c25.92 0 47 21.08 47 47z" fill="#f9a58b"/><path d="m119.5 319c-8.284 0-15-6.716-15-15v-176c0-8.284 6.716-15 15-15s15 6.716 15 15v176c0 8.284-6.716 15-15 15z" fill="#e4e4ff"/><path d="m391.5 319c-8.284 0-15-6.716-15-15v-176c0-8.284 6.716-15 15-15s15 6.716 15 15v176c0 8.284-6.716 15-15 15z" fill="#b4b9f1"/><path d="m430.5 45v83c0 8.28-6.72 15-15 15h-320c-8.28 0-15-6.72-15-15v-83c0-24.81 20.19-45 45-45h260c24.81 0 45 20.19 45 45z" fill="#acceff"/><path d="m430.5 45v83c0 8.28-6.72 15-15 15h-160v-143h130c24.81 0 45 20.19 45 45z" fill="#989dec"/><path d="m318.5 72c0 8.28-6.72 15-15 15h-96c-8.28 0-15-6.72-15-15s6.72-15 15-15h96c8.28 0 15 6.72 15 15z" fill="#ffdd54"/><path d="m318.5 72c0 8.28-6.72 15-15 15h-48v-30h48c8.28 0 15 6.72 15 15z" fill="#ffb454"/><path d="m382.5 304v193c0 8.28-6.72 15-15 15h-224c-8.28 0-15-6.72-15-15v-193c0-8.28 6.72-15 15-15h224c8.28 0 15 6.72 15 15z" fill="#acceff"/><path d="m382.5 304v193c0 8.28-6.72 15-15 15h-112v-223h112c8.28 0 15 6.72 15 15z" fill="#989dec"/><path d="m430.5 304c0 8.28-6.72 15-15 15h-320c-8.28 0-15-6.72-15-15s6.72-15 15-15h320c8.28 0 15 6.72 15 15z" fill="#989dec"/><path d="m430.5 304c0 8.28-6.72 15-15 15h-160v-30h160c8.28 0 15 6.72 15 15z" fill="#5e69e2"/><path d="m318.5 368v64c0 8.28-6.72 15-15 15h-96c-8.28 0-15-6.72-15-15v-64c0-8.28 6.72-15 15-15h96c8.28 0 15 6.72 15 15z" fill="#ffdd54"/><path d="m318.5 368v64c0 8.28-6.72 15-15 15h-48v-94h48c8.28 0 15 6.72 15 15z" fill="#ffb454"/><path d="m510.5 497c0 8.28-6.72 15-15 15h-480c-8.28 0-15-6.72-15-15s6.72-15 15-15h480c8.28 0 15 6.72 15 15z" fill="#8078be"/><path d="m511.5 497c0 8.28-6.72 15-15 15h-240v-30h240c8.28 0 15 6.72 15 15z" fill="#524798"/></g></svg>