<svg id="Capa_1" enable-background="new 0 0 512 512" height="512" viewBox="0 0 512 512" width="512" xmlns="http://www.w3.org/2000/svg"><g><path d="m464.871 242.513-228.577-131.969-21.051 36.462 228.576 131.969c10.069 5.813 22.944 2.363 28.757-7.705 5.813-10.069 2.363-22.944-7.705-28.757z" fill="#838383"/><path d="m490.949 152.647h-284.989v-42.103h284.989c11.626 0 21.051 9.425 21.051 21.051 0 11.627-9.425 21.052-21.051 21.052z" fill="#bfbfbf"/><path d="m490.949 110.544h-284.989v14.601h255.787c11.626 0 21.051 9.425 21.051 21.052 0 2.252-.362 4.417-1.016 6.45h9.167c11.626 0 21.051-9.425 21.051-21.052 0-11.626-9.425-21.051-21.051-21.051z" fill="#acacac"/><path d="m248.679 172.484h-77.724v-81.777h77.724c6.708 0 12.145 5.438 12.145 12.145v57.487c0 6.707-5.437 12.145-12.145 12.145z" fill="#5a5a5a"/><path d="m188.973 31.741h-2.429v8.264h-117.403v-8.264h-2.429c-18.781 0-34.006 15.225-34.006 34.007v390.544h190.272c0-4.992 0-381.003 0-390.544.001-18.781-15.224-34.007-34.005-34.007z" fill="#bfbfbf"/><path d="m69.141 432.325v-121.353c0-5.366 4.35-9.716 9.716-9.716h97.97c5.366 0 9.716 4.35 9.716 9.716v121.353z" fill="#9c9c9c"/><path d="m69.141 203.082v-40.516c0-5.366 4.35-9.716 9.716-9.716h97.97c5.366 0 9.716 4.35 9.716 9.716v40.516c0 5.366-4.35 9.716-9.716 9.716h-97.97c-5.366 0-9.716-4.35-9.716-9.716z" fill="#eb5569"/><path d="m188.973 31.741h-2.429v8.264h-117.403v-8.264h-2.429c-11.565 0-21.776 5.779-27.919 14.601h111.315 2.429c18.781 0 34.006 15.225 34.006 34.007v375.943h36.435c0-4.992 0-381.003 0-390.544.001-18.781-15.224-34.007-34.005-34.007z" fill="#acacac"/><path d="m69.141 64.027v-32.286h117.402v32.286c0 6.26-5.075 11.335-11.335 11.335h-94.731c-6.261.001-11.336-5.074-11.336-11.335z" fill="#e2e2e2"/><path d="m69.141 31.741v14.601h83.396c15.131 0 27.947 9.885 32.36 23.546 1.038-1.712 1.646-3.713 1.646-5.861v-32.286z" fill="#cecece"/><path d="m247.163 480.259h-238.64c-4.707 0-8.523-3.816-8.523-8.523v-30.888c0-4.707 3.816-8.523 8.523-8.523h238.64c4.707 0 8.523 3.816 8.523 8.523v30.888c-.001 4.707-3.816 8.523-8.523 8.523z" fill="#838383"/><path d="m247.162 432.325h-35.042c4.707 0 8.523 3.816 8.523 8.523v30.888c0 4.707-3.816 8.523-8.523 8.523h35.042c4.707 0 8.523-3.816 8.523-8.523v-30.888c0-4.707-3.815-8.523-8.523-8.523z" fill="#5a5a5a"/></g></svg>